<svg viewBox="0 0 599.9999999999999 607.5" fill="none" xmlns="http://www.w3.org/2000/svg" xmlns:xlink="http://www.w3.org/1999/xlink" xmlns:blush="http://design.blush" overflow="visible" width="599.9999999999999px" height="607.5px"><g id="Master/Spot Illustrations/Point" blush:has-customizable-colors="true" blush:viewBox="0 0 599.9999999999999 599.9999999999999" blush:i="0"><g id="Background" style="mix-blend-mode:soft-light" blush:component="Background" blush:defaultValue="2021" blush:width="600" blush:height="600" blush:i="0.0" blush:value="Empty" transform="scale(600 600)" blush:viewBox="1.75 1.75 0 0"><g id="Background/Empty" stroke="none" stroke-width="1" fill="none" fill-rule="evenodd" fill-opacity="0" blush:viewBox="1.75 1.75 0 0" blush:i="0.0.0"/></g><g id="Master/Hands/Point" blush:has-customizable-colors="true" blush:component="Master/Hands/Point" blush:width="600" blush:height="600" blush:i="0.1" blush:value="Point" transform="scale(1 1)" blush:viewBox="0 0 599.9999999999999 599.9999999999999"><g id="Master/Hands/Point" blush:has-customizable-colors="true" blush:viewBox="0 0 599.9999999999999 599.9999999999999" blush:i="0.1.0"><g id="base" blush:i="0.1.0.0"><path id="Path" d="M300.081 246.837C299.231 245.931 299.405 244.477 300.445 243.796C300.549 243.728 300.549 243.728 301.042 243.406C301.528 243.088 302.092 242.719 302.728 242.304C304.544 241.117 306.57 239.794 308.754 238.37C314.995 234.3 321.253 230.231 327.118 226.432L327.546 226.155C338.933 218.783 347.368 213.386 351.643 210.766C353.269 209.767 354.994 208.66 357.207 207.206C358.128 206.6 362.028 204.019 363.053 203.346C371.93 197.515 377.761 194.173 383.868 191.803C386.589 190.746 389.205 189.976 391.745 189.504C405.997 186.856 415.385 203.021 409.9 215.845C408.51 219.101 406.329 222.592 403.431 226.324C400.263 230.405 396.307 234.691 391.583 239.286C387.742 243.022 385.129 245.386 378.465 251.279C374.652 254.647 369.063 259.291 362.12 264.893C361.666 265.26 361.207 265.63 360.743 266.003C355.685 270.072 350.268 274.367 344.85 278.619C342.954 280.107 341.194 281.483 339.614 282.714C339.061 283.146 338.569 283.528 338.146 283.857C337.892 284.054 337.716 284.19 337.625 284.261C336.809 284.893 335.646 284.801 334.941 284.047L300.081 246.837Z" fill="#ff9ba5" blush:color="Skin-500" blush:i="0.1.0.0.0"/><path id="Path" d="M343.218 296.377C342.427 290.546 341.178 284.696 339.185 276.833C338.824 275.41 338.752 275.13 337.846 271.629C332.161 249.619 322.048 241.324 301.347 243.44C285.554 245.053 271.867 248.538 245.815 256.65C243.78 257.284 242.01 257.822 238.505 258.874C237.856 259.069 237.856 259.069 237.205 259.265C218.893 264.768 210.353 268.001 201.759 273.612C190.334 281.069 183.305 291.125 180.84 305.144C178.733 317.039 177.95 329.341 177.871 346.087C177.854 349.769 177.864 352.721 177.903 359.314C177.939 365.267 177.949 367.888 177.94 371.164C177.936 375.638 177.879 381.717 177.7 398.392L177.696 398.816C177.523 414.953 177.46 421.832 177.46 426.44V597.74C177.46 598.844 178.355 599.74 179.46 599.74H363.81C364.915 599.74 365.81 598.844 365.81 597.74V349.29C365.81 348.719 365.811 348.293 365.814 347.143C365.836 338.7 365.722 334.278 365.159 328.928C363.637 314.444 359.162 304.404 350.067 299.712C348.03 298.566 345.741 297.84 343.375 297.589C343.325 297.187 343.273 296.783 343.218 296.377Z" fill="#ff9ba5" blush:color="Skin-500" blush:i="0.1.0.0.1"/><path id="Path" d="M208.446 314.252C210.579 315.54 212.376 316.982 214.614 319.115C215.073 319.551 215.548 320.014 216.163 320.621C216.354 320.809 217.465 321.908 217.797 322.235C218.584 323.01 219.85 323 220.625 322.213C221.4 321.426 221.39 320.16 220.603 319.385C220.276 319.062 219.167 317.965 218.972 317.773C218.341 317.151 217.851 316.673 217.373 316.218C214.941 313.901 212.928 312.285 210.513 310.828C209.568 310.257 208.338 310.561 207.768 311.506C207.197 312.452 207.501 313.681 208.446 314.252Z" fill="#484882" blush:color="Skin-700" blush:i="0.1.0.0.2"/><path id="Path" d="M273.066 253.605C278.856 254.525 287.905 261.919 291.006 267.882C295.689 276.894 299.634 289.791 302.987 305.078C303.184 305.983 303.342 306.786 303.638 308.37C303.982 310.204 304.109 310.859 304.312 311.814C304.428 312.362 304.545 312.879 304.666 313.38C304.926 314.454 306.007 315.114 307.08 314.854C308.154 314.594 308.814 313.513 308.554 312.44C308.442 311.977 308.333 311.495 308.224 310.982C308.03 310.07 307.907 309.434 307.57 307.633C307.266 306.012 307.103 305.18 306.894 304.223C303.471 288.616 299.44 275.439 294.555 266.038C290.905 259.017 280.834 250.789 273.694 249.655C272.603 249.481 271.578 250.225 271.405 251.316C271.232 252.407 271.975 253.432 273.066 253.605Z" fill="#484882" blush:color="Skin-700" blush:i="0.1.0.0.3"/><path id="Path" d="M267.396 364.787C275.935 357.221 275.973 327.287 267.519 296.353C263.434 281.421 250.613 265.675 237.251 260.993C236.209 260.627 235.068 261.176 234.702 262.218C234.337 263.261 234.886 264.402 235.928 264.767C247.944 268.979 259.9 283.662 263.661 297.408C271.726 326.919 271.689 355.639 264.744 361.793C263.917 362.526 263.84 363.79 264.573 364.616C265.306 365.443 266.57 365.519 267.396 364.787Z" fill="#484882" blush:color="Skin-700" blush:i="0.1.0.0.4"/><path id="Path" d="M277.342 448.472C271.769 447.056 266.624 447.158 262.227 449.291C261.233 449.773 260.819 450.969 261.301 451.963C261.783 452.957 262.979 453.372 263.973 452.889C267.398 451.228 271.619 451.145 276.358 452.348C277.428 452.62 278.517 451.973 278.789 450.902C279.06 449.832 278.413 448.743 277.342 448.472Z" fill="#484882" blush:color="Skin-700" blush:i="0.1.0.0.5"/><path id="Path" d="M322.654 355.517C325.065 354.711 324.047 351.099 321.57 351.671C319.087 352.245 317.042 352.905 313.659 354.217C311.001 355.082 308.927 355.799 307.065 356.512C304.703 357.426 302.656 358.252 300.822 359.052C298.695 359.682 296.919 360.021 294.988 360.198C289.287 360.72 287.063 358.429 283.859 350.55C283.78 350.356 283.068 348.592 282.851 348.061C280.176 341.484 280.842 336.338 284.384 331.632C287.207 327.88 290.852 325.122 299.184 319.851L300.32 319.132C300.818 318.817 301.219 318.562 301.605 318.316C305.44 315.874 309.609 313.401 314.898 310.395C316.349 309.57 317.841 308.729 319.781 307.641C319.997 307.519 323.577 305.514 324.61 304.933C331.347 301.141 338.401 298.936 342.349 298.88C343.453 298.864 344.336 297.956 344.32 296.852C344.304 295.747 343.396 294.864 342.292 294.88C337.614 294.946 329.928 297.349 322.649 301.447C321.62 302.025 318.042 304.03 317.824 304.152C315.878 305.244 314.38 306.088 312.921 306.917C307.579 309.954 303.357 312.458 299.456 314.943C299.073 315.187 298.675 315.439 298.181 315.752L297.046 316.47C288.29 322.009 284.408 324.947 281.188 329.227C276.8 335.058 275.942 341.689 279.147 349.573C279.362 350.097 280.071 351.854 280.153 352.056C281.953 356.482 283.18 358.801 285.103 360.781C286.83 362.56 288.911 363.669 291.423 364.079C290.278 364.844 289.135 365.673 287.938 366.597C276.277 375.649 270.135 385.309 262.317 403.894C261.888 404.912 262.367 406.085 263.385 406.513C264.403 406.942 265.575 406.464 266.004 405.445C273.579 387.438 279.393 378.294 290.387 369.76C294.181 366.831 297.382 364.934 302.169 362.829C304.616 362.09 307.462 361.012 311.343 359.443C312.744 358.876 313.946 358.397 315.006 357.985C315.81 357.725 321.195 356.004 322.654 355.517Z" fill="#484882" blush:color="Skin-700" blush:i="0.1.0.0.6"/><path id="Path" d="M284.253 355.535C268.514 361.874 255.721 364.132 243.381 361.736C233.369 359.786 226.932 351.391 223.53 337.821C220.954 327.544 220.344 315.247 221.077 302.878C221.142 301.775 220.301 300.829 219.198 300.763C218.096 300.698 217.149 301.539 217.084 302.642C216.329 315.381 216.958 328.052 219.65 338.794C223.389 353.71 230.788 363.358 242.618 365.663C255.847 368.231 269.358 365.847 285.747 359.245C286.772 358.832 287.268 357.667 286.855 356.643C286.443 355.618 285.277 355.122 284.253 355.535Z" fill="#484882" blush:color="Skin-700" blush:i="0.1.0.0.7"/><path id="Path" d="M305.485 243.21C322.767 243.082 332.346 250.206 336.599 267.264C336.896 268.441 337.342 270.274 338.029 273.127L338.049 273.212C338.209 273.873 338.759 276.16 338.738 276.074C338.998 277.155 339.176 277.893 339.326 278.511C339.586 279.585 340.668 280.244 341.741 279.984C342.815 279.723 343.474 278.642 343.213 277.569C343.064 276.953 342.887 276.217 342.627 275.138C342.648 275.224 342.098 272.937 341.938 272.276L341.918 272.19C341.227 269.323 340.779 267.482 340.479 266.291C335.772 247.413 324.552 239.068 305.455 239.21C304.35 239.218 303.462 240.12 303.47 241.225C303.478 242.329 304.38 243.218 305.485 243.21Z" fill="#484882" blush:color="Skin-700" blush:i="0.1.0.0.8"/></g><g id="Point/Wear" blush:component="Point/Wear" blush:defaultValue="Bracelet" blush:width="600" blush:height="600" blush:i="0.1.0.1" blush:value="Cloud" transform="scale(1 1)" blush:viewBox="51.00000000000006 441 510.0000000000001 161.99999999999997"><g id="Point/Wear/Cloud" blush:viewBox="51.00000000000006 441 510.0000000000001 161.99999999999997" blush:i="0.1.0.1.0"><g id="clothing" blush:i="0.1.0.1.0.0"><path id="Path" d="M464.52 526.18C455.24 518.66 447.79 519.05 440.85 522.4C442.786 519.078 444.253 515.504 445.21 511.78C448.1 502.128 448.404 491.886 446.09 482.08C442.71 468.08 435.09 457.65 423.3 451.13C402.12 439.36 383.2 439.78 365.8 445.31V510.58C362.162 508.906 358.38 507.567 354.5 506.58C316.25 496.12 275.39 532.94 257.27 561.99C256.61 549.99 250.43 544.41 241.87 540.65C232.36 536.49 213.74 537.48 200.57 541.54C192.572 543.921 184.831 547.09 177.46 551V482.25C175.98 484.15 174.52 486.12 172.93 488.25C164.51 499.77 156.36 518.32 152.56 534.18C147.22 525.64 138.75 516.77 129.06 514.92C122.94 513.76 117.19 515.53 111.98 520.17C97.7496 532.86 99.2896 559.17 105.98 576C93.2796 573.15 67.5196 573.48 57.1596 583.64C53.8796 586.85 52.7696 589.91 53.8596 592.74C56.6296 599.96 73.3696 601.43 80.4396 601.74C92.6896 602.25 113.5 601.81 131.86 601.41C141.95 601.2 151.49 600.99 158.28 600.98C171.21 600.98 188.28 601.24 208.04 601.57C231.04 601.95 257.15 602.39 281.71 602.39C309.41 602.39 332.536 602.333 351.09 602.22C362.53 602.22 371.85 602.13 378.77 602.13C395.46 602.13 423.4 602.13 444.3 595.25C459.3 590.3 475.71 576.25 476.48 559.91C477 549.38 475.34 535 464.52 526.18Z" fill="#91D5DD" blush:i="0.1.0.1.0.0.0"/><path id="Path_2" d="M554.49 496.16C551.832 495.021 548.832 494.974 546.14 496.03C548.393 487.463 546.961 478.344 542.19 470.88C536.906 462.682 527.823 457.727 518.07 457.72C508.49 457.62 500.27 461.72 496.16 468.72C493.561 473.31 492.753 478.699 493.89 483.85C488.11 478.85 483.02 477.69 478.71 480.36C475.737 482.031 473.66 484.936 473.04 488.29C472.698 490.583 473.01 492.926 473.94 495.05C472.133 495.154 470.412 495.857 469.05 497.05C466.256 499.481 465.159 503.331 466.25 506.87C467.45 510.51 470.92 512.79 475.77 513.13H476C485.78 513.13 495.75 513.97 505.39 514.78C515.03 515.59 525.12 516.44 535.1 516.44C538.094 516.44 541.094 516.357 544.1 516.19C549.31 515.89 559 515.32 559.19 505.25C559.22 499.38 556.26 497 554.49 496.16Z" fill="#91D5DD" blush:i="0.1.0.1.0.0.1"/><path id="Path_3" d="M242.674 538.799C233.052 534.64 214.234 535.215 199.981 539.609C185.191 544.113 172.519 549.969 165.953 557.05C165.202 557.86 165.25 559.125 166.06 559.877C166.87 560.628 168.135 560.58 168.886 559.77C174.814 553.377 187.013 547.739 201.153 543.433C214.583 539.293 232.471 538.747 241.077 542.466C250.29 546.513 254.72 552.041 255.273 562.08C255.38 564.03 257.933 564.686 258.967 563.028C268.687 547.445 283.567 531.722 299.454 521.112C318.121 508.646 336.921 503.824 353.972 508.489C364.695 511.411 370.881 514.751 376.75 521.403C382.196 527.516 385.596 535.167 386.482 543.297C387.324 549.769 386.71 558.044 384.88 562.193C384.434 563.204 384.892 564.384 385.903 564.83C386.913 565.276 388.094 564.818 388.54 563.807C390.711 558.885 391.376 549.913 390.453 542.822C389.482 533.906 385.737 525.477 379.743 518.75C373.296 511.443 366.439 507.741 355.026 504.63C336.71 499.619 316.781 504.731 297.233 517.785C282.4 527.691 268.47 541.868 258.536 556.382C256.656 547.98 251.426 542.643 242.674 538.799Z" fill="#1A4E66" blush:i="0.1.0.1.0.0.2"/></g></g></g><g id="Point/Item" blush:component="Point/Item" blush:defaultValue="Ladybug" blush:width="600" blush:height="600" blush:i="0.1.0.2" blush:value="Bird" transform="scale(1 1)" blush:viewBox="147 33 296.99999999999994 167.99999999999983"><g id="Point/Item/Bird" blush:viewBox="147 33 296.99999999999994 167.99999999999983" blush:i="0.1.0.2.0"><g id="items" blush:i="0.1.0.2.0.0"><path id="Path" d="M433.353 178.419C433.634 178.591 433.848 178.722 433.891 178.749C435.495 179.741 434.961 182.198 433.09 182.434C425.97 183.334 418.793 183.693 411.598 183.509C401.289 183.138 392.01 181.806 385.053 179.225C374.906 175.454 365.881 169.171 358.816 160.955C351.289 152.101 348.962 141.333 348.341 122.855C347.909 111.373 349.503 101.22 353.55 93.7726C358.604 84.4722 367.22 79.8626 379.391 81.0802C391.272 82.2803 399.829 88.0285 402.726 98.4535C403.826 102.404 404.71 106.646 405.788 112.765C405.922 113.526 406.059 114.315 406.228 115.295C406.304 115.733 406.592 117.409 406.661 117.806C407.328 121.677 407.751 124.005 408.236 126.375C409.825 134.932 413.094 143.09 417.843 150.36C422.251 156.968 426.211 159.528 437.739 164.334C439.167 164.93 439.407 166.852 438.17 167.78C437.371 168.379 436.464 168.907 435.482 169.36C438.46 169.801 439.968 170.074 441.602 170.507C443.204 170.931 443.624 173.008 442.314 174.022C440.853 175.152 439.257 176.095 437.562 176.828C436.194 177.452 434.788 177.983 433.353 178.419Z" fill="#90BFFF" blush:i="0.1.0.2.0.0.0"/><path id="Path_2" d="M375.658 148.294C374.925 147.467 373.661 147.39 372.834 148.123C372.007 148.855 371.931 150.119 372.663 150.946C379.807 159.015 394.266 166.845 402.549 165.202C403.486 165.016 404.16 164.195 404.16 163.24C404.16 161.706 404.019 160.524 403.602 157.896C403.188 155.285 403.061 154.145 403.099 152.787C403.131 151.683 402.261 150.762 401.157 150.731C400.053 150.699 399.132 151.569 399.101 152.673C399.053 154.362 399.199 155.667 399.652 158.523C399.854 159.797 399.984 160.69 400.062 161.433C393.114 161.428 381.452 154.838 375.658 148.294Z" fill="#484882" blush:i="0.1.0.2.0.0.1"/><path id="Path_3" d="M384.49 170.95V194.21C384.49 195.315 385.386 196.21 386.49 196.21C387.595 196.21 388.49 195.315 388.49 194.21V170.95C388.49 169.846 387.595 168.95 386.49 168.95C385.386 168.95 384.49 169.846 384.49 170.95Z" fill="#484882" blush:i="0.1.0.2.0.0.2"/><path id="Path_4" d="M371.171 101.362L370.941 105.212C370.727 108.796 373.459 111.874 377.042 112.089C380.626 112.303 383.704 109.571 383.918 105.988L384.148 102.138C384.362 98.5542 381.631 95.4757 378.048 95.2616C374.464 95.0476 371.386 97.779 371.171 101.362Z" fill="white" blush:i="0.1.0.2.0.0.3"/><path id="Path_5" d="M378.489 196.946C378.389 193.231 378.369 189.293 378.403 183.968C378.411 182.707 378.42 181.654 378.439 179.452C378.478 174.984 378.49 173.104 378.49 170.74C378.49 169.635 377.595 168.74 376.49 168.74C375.385 168.74 374.49 169.635 374.49 170.74C374.49 173.089 374.478 174.961 374.439 179.417C374.42 181.622 374.411 182.677 374.403 183.943C374.369 189.308 374.389 193.286 374.491 197.054C374.521 198.158 375.44 199.029 376.544 198.999C377.648 198.969 378.519 198.05 378.489 196.946Z" fill="#484882" blush:i="0.1.0.2.0.0.4"/><path id="Path_6" d="M375.663 101.631L375.433 105.481C375.367 106.583 376.208 107.531 377.31 107.597C378.413 107.662 379.36 106.822 379.426 105.719L379.656 101.869C379.722 100.767 378.882 99.8195 377.779 99.7536C376.676 99.6878 375.729 100.528 375.663 101.631Z" fill="#484882" blush:i="0.1.0.2.0.0.5"/><path id="Path_7" d="M338.809 110.902C338.584 111.029 337.021 111.901 336.573 112.156C335.714 112.644 335.042 113.044 334.435 113.436C333.577 113.989 332.878 114.51 332.302 115.042C331.068 116.183 331.708 118.247 333.372 118.489C335.605 118.815 338.639 119.001 342.296 119.075C345.487 119.139 348.893 119.115 352.184 119.035C352.87 119.018 353.494 119 354.046 118.983C354.378 118.972 354.613 118.963 354.738 118.959C355.636 118.924 356.401 118.294 356.607 117.419C357.167 115.045 357.567 112.772 358.114 109.098C358.055 109.492 358.612 105.714 358.775 104.65C359.045 102.887 359.298 101.345 359.578 99.7961C359.735 98.9323 359.309 98.0676 358.53 97.664L341.92 89.064C340.181 88.1636 338.318 90.0403 339.231 91.7727C339.275 91.8557 339.359 92.018 339.479 92.2502C339.68 92.64 339.904 93.0812 340.145 93.5646C340.835 94.9459 341.524 96.3853 342.166 97.8072C342.475 98.4892 342.764 99.1517 343.033 99.7896C343.764 101.523 344.317 103.025 344.648 104.208C344.818 104.819 344.924 105.326 344.963 105.704C344.977 105.844 344.981 105.955 344.977 106.031C344.326 107.432 342.492 108.827 338.809 110.902Z" fill="#484882" blush:i="0.1.0.2.0.0.6"/><path id="Path_8" d="M315.986 99.8335C305.009 102.16 294.169 101.383 282.444 97.8908C273.423 95.2043 265.991 91.8865 250.98 84.3539C245.235 81.4705 243.777 80.7441 241.096 79.4452C231.365 74.7302 223.911 71.6931 216.476 69.6702C208.935 67.7026 201.165 66.8658 193.399 67.1817C185.541 67.5873 174.255 70.0822 167.422 73.0119C166.407 73.4472 165.937 74.623 166.372 75.6382C166.808 76.6534 167.983 77.1235 168.999 76.6882C175.383 73.9508 186.206 71.5583 193.584 71.1774C200.933 70.8785 208.307 71.6728 215.446 73.5352C222.577 75.4754 229.824 78.4286 239.352 83.0449C242.009 84.3324 243.46 85.0552 249.186 87.929C264.403 95.5651 271.984 98.9495 281.302 101.724C293.632 105.396 305.138 106.221 316.815 103.747C317.896 103.518 318.586 102.456 318.357 101.375C318.128 100.295 317.066 99.6045 315.986 99.8335Z" fill="#CCC9C6" blush:i="0.1.0.2.0.0.7"/><path id="Path_9" d="M263.969 56.6789C258.49 52.578 252.31 49.5106 245.731 47.6273C239.801 46.1267 227.987 45.0244 222.765 45.644C221.668 45.7741 220.884 46.7688 221.014 47.8657C221.144 48.9626 222.139 49.7463 223.236 49.6161C227.929 49.0593 239.264 50.1168 244.69 51.489C250.741 53.2223 256.483 56.0717 261.572 59.8812C262.456 60.5431 263.709 60.3628 264.371 59.4786C265.033 58.5943 264.853 57.3409 263.969 56.6789Z" fill="#CCC9C6" blush:i="0.1.0.2.0.0.8"/><path id="Path_10" d="M305.796 125.442C298.329 131.446 282.553 132.165 273.324 127.421C272.341 126.916 271.136 127.303 270.631 128.286C270.126 129.268 270.513 130.474 271.495 130.979C282.06 136.408 299.531 135.613 308.303 128.559C309.164 127.866 309.3 126.607 308.608 125.747C307.916 124.886 306.657 124.749 305.796 125.442Z" fill="#CCC9C6" blush:i="0.1.0.2.0.0.9"/><path id="Path_11" d="M194.968 107.512C188.244 103.154 180.455 101.536 171.529 102.133C164.685 102.591 157.896 104.186 148.585 107.144C147.532 107.478 146.949 108.603 147.284 109.656C147.618 110.708 148.743 111.291 149.795 110.956C158.825 108.088 165.347 106.556 171.796 106.124C179.918 105.581 186.858 107.022 192.792 110.868C193.719 111.469 194.958 111.205 195.558 110.278C196.159 109.351 195.895 108.112 194.968 107.512Z" fill="#CCC9C6" blush:i="0.1.0.2.0.0.10"/><path id="Path_12" fill-rule="evenodd" clip-rule="evenodd" d="M278.822 63.8384C285.869 60.1476 294.543 62.3303 296.905 69.7213L296.908 69.7301C299.157 76.8825 296.01 82.0049 289.201 84.2311C282.993 86.2611 276.295 84.2361 273.698 79.138C270.855 73.5575 272.728 67.0296 278.822 63.8384ZM277.262 77.3222C278.88 80.4993 283.485 81.8915 287.958 80.4291C292.8 78.8462 294.639 75.8543 293.093 70.9345C291.58 66.2087 285.727 64.7373 280.678 67.3818C276.573 69.5315 275.391 73.6499 277.262 77.3222Z" fill="#CCC9C6" blush:i="0.1.0.2.0.0.11"/><path id="Path_13" fill-rule="evenodd" clip-rule="evenodd" d="M293.109 70.9827C290.848 64.4333 289.052 57.7378 287.732 50.9463C287.72 50.8952 287.71 50.8436 287.702 50.7915C286.947 46.8861 286.35 42.9491 285.912 38.9899C285.803 38.008 286.428 37.0939 287.382 36.8382C289.121 36.3721 290.578 36.5031 293.301 37.085L293.534 37.1349C295.04 37.4579 295.676 37.5685 296.392 37.6022C298.58 37.7037 300.545 37.1648 303.325 35.8553C303.691 35.6832 304.073 35.4971 304.548 35.2619C304.701 35.1862 305.096 34.9892 305.41 34.8329C305.599 34.7386 305.759 34.6591 305.817 34.6299C306.223 34.4287 306.556 34.2649 306.882 34.1081C307.924 33.606 309.174 34.0909 309.605 35.1647C309.949 36.0196 310.229 36.7817 310.717 38.1624C311.583 40.6098 311.904 41.4683 312.459 42.7223C313.703 45.5405 313.893 47.5049 312.71 49.1638C311.81 50.4268 310.83 50.9155 307.69 52.0834C302.062 54.1874 298.031 54.4785 292.28 53.2091C293.488 58.7808 295.027 64.2801 296.89 69.6774C297.25 70.7215 296.696 71.8601 295.652 72.2206C294.608 72.581 293.469 72.0268 293.109 70.9827ZM292.466 40.9967C291.481 40.7863 290.737 40.6543 290.129 40.5981C290.476 43.3742 290.904 46.1381 291.413 48.8865C297.442 50.454 300.904 50.35 306.292 48.3355C308.516 47.5086 309.233 47.1507 309.454 46.8413C309.593 46.6455 309.53 45.9916 308.801 44.3397C308.19 42.9606 307.847 42.0435 306.946 39.4964C306.84 39.1962 306.744 38.927 306.656 38.6811C306.516 38.7509 306.395 38.811 306.324 38.8462C305.827 39.0921 305.422 39.289 305.03 39.4739C301.713 41.0364 299.165 41.7352 296.205 41.5978C295.192 41.5501 294.421 41.416 292.695 41.0459L292.466 40.9967Z" fill="#CCC9C6" blush:i="0.1.0.2.0.0.12"/><path id="Path_14" fill-rule="evenodd" clip-rule="evenodd" d="M240.132 147.676C232.729 141.106 236.908 129.312 246.081 128.02C253.689 126.948 260.53 132.737 260.53 138.95C260.53 149.974 247.782 154.477 240.132 147.676ZM256.53 138.95C256.53 135.193 251.864 131.245 246.639 131.981C240.733 132.812 238.024 140.457 242.789 144.685C248.002 149.321 256.53 146.308 256.53 138.95Z" fill="#CCC9C6" blush:i="0.1.0.2.0.0.13"/><path id="Path_15" fill-rule="evenodd" clip-rule="evenodd" d="M193.498 135.901C188.868 128.408 193.594 119.647 202.694 117.666L202.729 117.659C210.25 116.163 215.512 121.111 216.681 127.615C218.73 139.657 200.166 146.707 193.498 135.901ZM196.902 133.8C201.258 140.86 214.051 136.002 212.741 128.304C211.932 123.803 208.523 120.593 203.527 121.578C196.965 123.016 193.832 128.833 196.902 133.8Z" fill="#CCC9C6" blush:i="0.1.0.2.0.0.14"/><path id="Path_16" d="M224.794 96.3183C225.08 96.347 225.351 96.3765 225.625 96.4087C228.671 96.7665 231.876 97.419 235.65 98.3812C236.517 98.6023 237.384 98.8314 238.445 99.1181C238.667 99.1782 240.317 99.6265 240.87 99.7752C243.45 100.648 245.979 101.663 248.445 102.816C250.584 108.068 252.26 113.497 253.455 119.041C254.257 122.914 255.11 128.532 256.548 139.266C256.695 140.36 257.701 141.129 258.796 140.982C259.891 140.836 260.659 139.829 260.513 138.734C259.062 127.906 258.2 122.227 257.369 118.214C256.066 112.167 254.218 106.267 251.847 100.571C251.658 100.118 251.309 99.7498 250.866 99.5372C248.016 98.1686 245.085 96.9757 242.09 95.965L241.968 95.9283C241.498 95.8023 239.725 95.3206 239.488 95.2565C238.41 94.9653 237.526 94.7316 236.638 94.5052C232.707 93.503 229.341 92.8177 226.091 92.436C225.795 92.4012 225.501 92.3692 225.209 92.34C220.521 91.8298 215.79 91.5889 211.057 91.6201C209.745 91.6288 208.796 92.8778 209.14 94.1444C209.781 96.5017 210.32 99.5031 210.866 103.479C211.118 105.317 211.86 111.289 211.917 111.729C212.661 117.561 212.96 123.446 212.811 129.329C212.783 130.434 213.655 131.351 214.76 131.379C215.864 131.407 216.782 130.535 216.81 129.431C216.964 123.345 216.655 117.256 215.884 111.217C215.829 110.794 215.085 104.804 214.829 102.935C214.436 100.071 214.043 97.6801 213.608 95.63C217.345 95.6843 221.078 95.914 224.794 96.3183Z" fill="#CCC9C6" blush:i="0.1.0.2.0.0.15"/><path id="Path_17" d="M213.422 107.991C215.233 107.816 217.058 107.841 218.863 108.065C223.517 108.675 228.143 109.568 232.703 110.737C234.118 111.067 235.322 111.34 237.631 111.86C239.047 112.179 239.284 112.233 239.891 112.37C244.918 113.507 248.154 114.291 251.425 115.197C252.127 115.393 252.813 115.654 253.47 115.976C254.462 116.462 255.66 116.052 256.146 115.059C256.632 114.067 256.221 112.869 255.229 112.384C254.352 111.955 253.438 111.606 252.498 111.344C249.146 110.415 245.858 109.619 240.773 108.468C240.165 108.331 239.927 108.277 238.509 107.958C236.209 107.44 235.012 107.168 233.652 106.852C228.981 105.654 224.197 104.73 219.37 104.097C217.259 103.835 215.14 103.806 213.037 104.009C211.938 104.115 211.133 105.093 211.239 106.192C211.345 107.292 212.322 108.097 213.422 107.991Z" fill="#CCC9C6" blush:i="0.1.0.2.0.0.16"/></g></g></g></g></g></g></svg>